<?xml version="1.0" encoding="UTF-8"?>
<svg width="33px" height="32px" viewBox="0 0 33 32" version="1.1" xmlns="http://www.w3.org/2000/svg" xmlns:xlink="http://www.w3.org/1999/xlink">
    <!-- Generator: Sketch 55.1 (78136) - https://sketchapp.com -->
    <title>Email</title>
    <desc>Created with Sketch.</desc>
    <g id="Page-1" stroke="none" stroke-width="1" fill="none" fill-rule="evenodd">
        <g id="About---Mobile" transform="translate(-306.000000, -20.000000)">
            <g id="Top-Banner" transform="translate(-48.000000, 0.000000)">
                <g id="Phone-&amp;-Social" transform="translate(84.000000, 20.000000)">
                    <g id="Social---Keyline" transform="translate(190.000000, 0.000000)">
                        <g id="Email" transform="translate(80.955224, 0.000000)">
                            <path d="M16.0223881,0.846 C7.64042032,0.846 0.846,7.63092648 0.846,16 C0.846,24.3690735 7.64042032,31.154 16.0223881,31.154 C24.4043558,31.154 31.1987761,24.3690735 31.1987761,16 C31.1987761,7.63092648 24.4043558,0.846 16.0223881,0.846 Z" id="Shape" stroke="#FFF" stroke-width="1.692"></path>
                            <path d="M22.5508091,22.0952381 L9.5028654,22.0952381 C8.47421256,22.0952381 7.63953958,21.2428571 7.63953958,20.1904762 L7.63953958,13.5238095 C7.63953958,12.7904762 7.53788667,11.2809524 7.9883303,11.0238095 C8.06387053,11.32 8.83326182,12.4238095 9.04869139,12.6571429 L14.6162866,17.7380952 C15.0033137,18.1571429 15.5209042,18.2066667 16.0273035,18.1666667 C16.5486244,18.2057143 17.0830017,17.9819048 17.4812199,17.5742857 L23.2530535,12.6295238 C23.4395726,12.4390476 23.9842084,11.2609524 24.0653442,11.0238095 C24.4094719,11.4780952 24.4150675,12.8828571 24.4150675,13.5238095 L24.4150675,20.1904762 C24.4150675,21.2428571 23.5803945,22.0952381 22.5508091,22.0952381 Z M17.4812199,15.86 C17.0830017,16.267619 16.5486244,16.7295238 16.0273035,16.6904762 C15.5209042,16.7304762 15.0033137,16.4428571 14.6162866,16.0238095 L9.04869139,10.9428571 C8.77823869,10.6504762 8.64487753,10.2828571 8.58146104,9.9047619 L16.0273035,9.9047619 L23.7342728,9.9047619 C23.6689911,10.272381 23.530967,10.6304762 23.2530535,10.9152381 L17.4812199,15.86 Z" id="Message-Icon" fill="#FFF"></path>
                        </g>
                    </g>
                </g>
            </g>
        </g>
    </g>
</svg>