<?xml version="1.0" encoding="UTF-8"?>
<svg width="33px" height="32px" viewBox="0 0 33 32" version="1.1" xmlns="http://www.w3.org/2000/svg" xmlns:xlink="http://www.w3.org/1999/xlink">
    <!-- Generator: Sketch 55.1 (78136) - https://sketchapp.com -->
    <title>Facebook</title>
    <desc>Created with Sketch.</desc>
    <g id="Page-1" stroke="none" stroke-width="1" fill="none" fill-rule="evenodd">
        <g id="About---Mobile" transform="translate(-226.000000, -20.000000)">
            <g id="Top-Banner" transform="translate(-48.000000, 0.000000)">
                <g id="Phone-&amp;-Social" transform="translate(84.000000, 20.000000)">
                    <g id="Social---Keyline" transform="translate(190.000000, 0.000000)">
                        <g id="Facebook">
                            <g id="Group">
                                <path d="M16.0223881,0.846 C7.64042032,0.846 0.846,7.63092648 0.846,16 C0.846,24.3690735 7.64042032,31.154 16.0223881,31.154 C24.4043558,31.154 31.1987761,24.3690735 31.1987761,16 C31.1987761,7.63092648 24.4043558,0.846 16.0223881,0.846 Z" id="Shape" stroke="#FFF" stroke-width="1.692"></path>
                                <path d="M17.2791549,23.616381 L13.8964223,23.616381 L13.8964223,16.420852 L12.2060078,16.420852 L12.2060078,13.6482104 L13.8964223,13.6482104 L13.8964223,11.9846254 C13.8964223,9.72363621 14.8510877,8.37828571 17.5618424,8.37828571 L19.8195356,8.37828571 L19.8195356,11.1509273 L18.4089533,11.1509273 C17.3533961,11.1509273 17.2829621,11.538716 17.2829621,12.2609368 L17.2791549,13.6482104 L19.8357164,13.6482104 L19.5368481,16.420852 L17.2791549,16.420852 L17.2791549,23.616381 L17.2791549,23.616381 Z" id="Shape" fill="#FFF"></path>
                            </g>
                        </g>
                    </g>
                </g>
            </g>
        </g>
    </g>
</svg>