<?xml version="1.0" encoding="UTF-8"?>
<svg width="33px" height="32px" viewBox="0 0 33 32" version="1.1" xmlns="http://www.w3.org/2000/svg" xmlns:xlink="http://www.w3.org/1999/xlink">
    <!-- Generator: Sketch 55.1 (78136) - https://sketchapp.com -->
    <title>Instagram</title>
    <desc>Created with Sketch.</desc>
    <g id="Page-1" stroke="none" stroke-width="1" fill="none" fill-rule="evenodd">
        <g id="About---Mobile" transform="translate(-266.000000, -20.000000)">
            <g id="Top-Banner" transform="translate(-48.000000, 0.000000)">
                <g id="Phone-&amp;-Social" transform="translate(84.000000, 20.000000)">
                    <g id="Social---Keyline" transform="translate(190.000000, 0.000000)">
                        <g id="Instagram" transform="translate(40.477612, 0.000000)">
                            <path d="M16.0223881,0.846 C7.64042032,0.846 0.846,7.63092648 0.846,16 C0.846,24.3690735 7.64042032,31.154 16.0223881,31.154 C24.4043558,31.154 31.1987761,24.3690735 31.1987761,16 C31.1987761,7.63092648 24.4043558,0.846 16.0223881,0.846 Z" id="Shape" stroke="#FFF" stroke-width="1.692"></path>
                            <g id="insta" transform="translate(9.155650, 9.142857)" fill="#FFF">
                                <path d="M7.0027873,4.10590498 C5.40876039,4.10590498 4.11162365,5.40122923 4.11162365,6.99302881 C4.11162365,8.58482838 5.40876039,9.87988768 7.0027873,9.87988768 C8.5968142,9.87988768 9.89368562,8.58482838 9.89368562,6.99302881 C9.89368562,5.40122923 8.5968142,4.10590498 7.0027873,4.10590498" id="Fill-1"></path>
                                <g id="Group-5">
                                    <path d="M11.2550026,3.40329292 C10.7723903,3.40329292 10.3807818,3.01223164 10.3807818,2.53029365 C10.3807818,2.04782577 10.7723903,1.65702944 11.2550026,1.65702944 C11.7378803,1.65702944 12.1294888,2.04782577 12.1294888,2.53029365 C12.1294888,3.01223164 11.7378803,3.40329292 11.2550026,3.40329292 L11.2550026,3.40329292 Z M7.00276076,11.1172151 C4.72554157,11.1172151 2.87256489,9.26709254 2.87256489,6.9930553 C2.87256489,4.71875312 4.72554157,2.86863055 7.00276076,2.86863055 C9.28024527,2.86863055 11.1326913,4.71875312 11.1326913,6.9930553 C11.1326913,9.26709254 9.28024527,11.1172151 7.00276076,11.1172151 L7.00276076,11.1172151 Z M14.0617953,3.17066975 C14.0617953,1.41963723 12.6404901,5.29893333e-05 10.8867421,5.29893333e-05 L3.17502672,5.29893333e-05 C1.42154407,5.29893333e-05 -2.65317396e-05,1.41963723 -2.65317396e-05,3.17066975 L-2.65317396e-05,10.8716095 C-2.65317396e-05,12.6226421 1.42154407,14.0422263 3.17502672,14.0422263 L10.8867421,14.0422263 C12.6404901,14.0422263 14.0617953,12.6226421 14.0617953,10.8716095 L14.0617953,3.17066975 Z" id="Fill-3"></path>
                                </g>
                            </g>
                        </g>
                    </g>
                </g>
            </g>
        </g>
    </g>
</svg>