<?xml version="1.0" encoding="UTF-8"?>
<svg width="17px" height="17px" viewBox="0 0 17 17" version="1.1" xmlns="http://www.w3.org/2000/svg" xmlns:xlink="http://www.w3.org/1999/xlink">
    <!-- Generator: Sketch 55.1 (78136) - https://sketchapp.com -->
    <title>Phone Icon</title>
    <desc>Created with Sketch.</desc>
    <defs>
        <polygon id="path-1" points="8.94736842e-05 -0.000268421053 16.9919474 -0.000268421053 16.9919474 16.9915895 8.94736842e-05 16.9915895"></polygon>
    </defs>
    <g id="Page-1" stroke="none" stroke-width="1" fill="none" fill-rule="evenodd">
        <g id="About---Mobile" transform="translate(-36.000000, -28.000000)">
            <g id="Top-Banner" transform="translate(-48.000000, 0.000000)">
                <g id="Phone-&amp;-Social" transform="translate(84.000000, 20.000000)">
                    <g id="Phone" transform="translate(0.000000, 1.000000)">
                        <g id="Phone-Icon" transform="translate(0.000000, 7.000000)">
                            <mask id="mask-2" fill="white">
                                <use xlink:href="#path-1"></use>
                            </mask>
                            <g id="Clip-2"></g>
                            <path d="M8.49561579,7.78743158 C10.0614053,7.78743158 11.3274579,9.05527368 11.3274579,10.6201684 C11.3274579,12.1841684 10.0614053,13.4520105 8.49561579,13.4520105 C6.93072105,13.4520105 5.66377368,12.1841684 5.66377368,10.6201684 C5.66377368,9.05527368 6.93072105,7.78743158 8.49561579,7.78743158 L8.49561579,7.78743158 Z M7.43356316,6.01674737 L7.43356316,5.13364211 C7.43356316,4.64422105 7.03719474,4.24785263 6.54866842,4.24785263 C6.06014211,4.24785263 5.66377368,4.64422105 5.66377368,5.13364211 L5.66377368,6.01674737 L0.888563158,11.1194316 C0.558405263,11.4415368 0.353510526,11.8906947 0.353510526,12.3863789 L0.353510526,13.8063263 C0.353510526,14.5892211 0.986984211,15.2226947 1.76987895,15.2226947 L2.1233,15.2226947 L2.1233,16.1066947 C2.1233,16.5952211 2.52056316,16.9915895 3.00908947,16.9915895 C3.49761579,16.9915895 3.89398421,16.5952211 3.89398421,16.1066947 L3.89398421,15.2226947 L13.0972474,15.2226947 L13.0972474,16.1066947 C13.0972474,16.5952211 13.4936158,16.9915895 13.9830368,16.9915895 C14.4706684,16.9915895 14.8688263,16.5952211 14.8688263,16.1066947 L14.8688263,15.2226947 L15.2222474,15.2226947 C16.0033526,15.2226947 16.6377211,14.5892211 16.6377211,13.8063263 L16.6377211,12.3863789 C16.6377211,11.8906947 16.4328263,11.4415368 16.1026684,11.1194316 L11.3274579,6.01674737 L11.3274579,5.13364211 C11.3274579,4.64422105 10.9310895,4.24785263 10.4425632,4.24785263 C9.95403684,4.24785263 9.55766842,4.64422105 9.55766842,5.13364211 L9.55766842,6.01674737 L7.43356316,6.01674737 Z M8.49561579,9.2038 C7.71272105,9.2038 7.08014211,9.83727368 7.08014211,10.6201684 C7.08014211,11.4021684 7.71272105,12.0347474 8.49561579,12.0347474 C9.27851053,12.0347474 9.91198421,11.4021684 9.91198421,10.6201684 C9.91198421,9.83727368 9.27851053,9.2038 8.49561579,9.2038 L8.49561579,9.2038 Z M8.49561579,-0.000357894737 C5.46872105,-0.000357894737 2.43556316,0.540957895 1.33503684,1.6218 C0.420615789,2.51653684 0.116405263,4.09932632 0.0144052632,5.10143158 C0.0144052632,5.10143158 8.94736842e-05,5.19985263 8.94736842e-05,5.2428 C8.94736842e-05,5.63558947 0.317721053,5.95053684 0.707826316,5.95053684 C0.754352632,5.95053684 2.45614211,5.81185263 3.4833,5.72685263 C3.50745789,5.72506316 3.53340526,5.72058947 3.55666842,5.71253684 C3.93961579,5.70269474 4.24740526,5.39132632 4.24740526,5.00569474 L4.25098421,3.6108 C4.25098421,3.17953684 4.60172105,2.83237895 5.03387895,2.83237895 L11.9582474,2.83237895 C12.3895105,2.83237895 12.7402474,3.17953684 12.7402474,3.6108 L12.7438263,5.00569474 C12.7438263,5.39132632 13.0516158,5.70269474 13.4336684,5.71253684 C13.4578263,5.72058947 13.4828789,5.72506316 13.5097211,5.72685263 C14.5350895,5.81185263 16.2377737,5.95053684 16.2843,5.95053684 C16.6735105,5.95053684 16.9920368,5.63558947 16.9920368,5.2428 C16.9920368,5.19985263 16.9786158,5.10143158 16.9786158,5.10143158 C16.8739316,4.09932632 16.5706158,2.51653684 15.6570895,1.6218 C14.5556684,0.540957895 11.5216158,-0.000357894737 8.49561579,-0.000357894737 L8.49561579,-0.000357894737 Z" id="Fill-1" fill="#FFF" mask="url(#mask-2)"></path>
                        </g>
                    </g>
                </g>
            </g>
        </g>
    </g>
</svg>